<svg fill="none" height="19" viewBox="0 0 18 19" width="18" xmlns="http://www.w3.org/2000/svg" xmlns:xlink="http://www.w3.org/1999/xlink"><clipPath id="a"><path d="m.200195.745117h17.6v17.6h-17.6z"/></clipPath><g clip-path="url(#a)" clip-rule="evenodd" fill="#96a2be" fill-rule="evenodd"><path d="m4.1007 8.95183c0-2.37825 1.92796-4.3062 4.30621-4.3062 2.37829 0 4.30619 1.92795 4.30619 4.3062 0 1.16467-.4624 2.22137-1.2136 2.99647-.0181.0133-.0354.0281-.0517.0444-.0164.0164-.0311.0337-.0444.0518-.7751.7512-1.83181 1.2135-2.99649 1.2135-2.37825 0-4.30621-1.9279-4.30621-4.30617zm7.6491 3.96517c-.9027.7619-2.06917 1.221-3.34289 1.221-2.86426 0-5.18621-2.3219-5.18621-5.18617 0-2.86426 2.32195-5.18621 5.18621-5.18621 2.86429 0 5.18619 2.32195 5.18619 5.18621 0 1.27377-.4592 2.44017-1.221 3.34297l2.2787 2.2787c.1718.1718.1718.4504 0 .6222s-.4504.1718-.6223 0z"/><path d="m6.18701 8.95172c0-.24301.197-.44.44-.44h3.55969c.243 0 .44.19699.44.44 0 .243-.197.44-.44.44h-3.55969c-.243 0-.44-.197-.44-.44z"/></g></svg>