<svg fill="none" height="12" viewBox="0 0 12 12" width="12" xmlns="http://www.w3.org/2000/svg"><path clip-rule="evenodd" d="m10.8958 1.17435c.2125-.214793.2125-.563034 0-.777822s-.557-.214788-.7695 0l-4.51204 4.560842-4.51203-4.560842c-.212494-.214788-.557009-.214788-.769498 0-.21249.214788-.21249.563029 0 .777822l4.512028 4.56083-4.512028 4.56082c-.21249.2148-.21249.5631 0 .7778.21249.2148.557004.2148.769498 0l4.51203-4.5608 4.51204 4.5608c.2125.2148.557.2148.7695 0 .2125-.2147.2125-.563 0-.7778l-4.51205-4.56082z" fill="#5e6a86" fill-rule="evenodd"/></svg>