<svg fill="none" height="21" viewBox="0 0 20 21" width="20" xmlns="http://www.w3.org/2000/svg"><rect fill="#2a344b" height="20" rx="4" width="20" y=".227325"/><g clip-rule="evenodd" fill="#5e6a86" fill-rule="evenodd"><path d="m11.6138 6.51655c.2325-.21606.6094-.21606.8419 0l3.5719 3.31956c.2324.21609.2324.56639 0 .78239l-3.5719 3.3196c-.2325.2161-.6094.2161-.8419 0s-.2325-.5664 0-.7824l3.1509-2.9284-3.1509-2.92832c-.2325-.21606-.2325-.56636 0-.78243z"/><path d="m8.38623 6.51655c.23248.21607.23248.56637 0 .78243l-3.15092 2.92832 3.15092 2.9284c.23248.216.23248.5663 0 .7824s-.60942.2161-.8419 0l-3.57187-3.3196c-.23249-.216-.23249-.5663 0-.78239l3.57187-3.31956c.23248-.21606.60942-.21606.8419 0z"/></g></svg>