<svg fill="none" height="10" viewBox="0 0 3 10" width="3" xmlns="http://www.w3.org/2000/svg"><path d="m.452576 5.21117c0 .27015.107315.52923.298336.72025s.450098.29834.720248.29834c.27014 0 .52922-.10732.72025-.29834.19102-.19102.29833-.4501.29833-.72025 0-.27014-.10731-.52922-.29833-.72024-.19103-.19103-.45011-.29834-.72025-.29834-.27015 0-.529227.10731-.720248.29834-.191021.19102-.298336.4501-.298336.72024zm0-3.55575c0 .27015.107315.52923.298336.72025s.450098.29834.720248.29834c.27014 0 .52922-.10732.72025-.29834.19102-.19102.29833-.4501.29833-.72025 0-.27014-.10731-.52922-.29833-.720243-.19103-.191022-.45011-.298336-.72025-.298336-.27015 0-.529227.107314-.720248.298336-.191021.191023-.298336.450103-.298336.720243zm0 7.1115c0 .27015.107315.52923.298336.72025s.450098.29833.720248.29833c.27014 0 .52922-.10731.72025-.29833.19102-.19102.29833-.4501.29833-.72025 0-.27014-.10731-.52922-.29833-.72025-.19103-.19102-.45011-.29833-.72025-.29833-.27015 0-.529227.10731-.720248.29833-.191021.19103-.298336.45011-.298336.72025z" fill="#5e6a86"/></svg>