<svg fill="none" height="24" viewBox="0 0 128 24" width="128" xmlns="http://www.w3.org/2000/svg"><path d="m81.392 16 1.722-9.8h3.71c.896 0 1.5633.196 2.002.588.448.392.672.896.672 1.512 0 .66267-.2007 1.22733-.602 1.694-.392.4667-.9053.784-1.54.952.4667.0933.84.3173 1.12.672.2893.3547.434.7793.434 1.274 0 .6253-.168 1.1713-.504 1.638-.336.4573-.784.8167-1.344 1.078s-1.1807.392-1.862.392zm2.464-5.586h2.03c.616 0 1.1107-.1633 1.484-.49.3827-.336.574-.784.574-1.344 0-.37333-.1307-.66733-.392-.882-.252-.21467-.6393-.322-1.162-.322h-2.002zm-.77 4.396h2.128c.672 0 1.2087-.182 1.61-.546s.602-.84.602-1.428c0-.4013-.1493-.714-.448-.938-.2893-.2333-.7-.35-1.232-.35h-2.086zm9.5343 1.358c-.7093 0-1.2646-.196-1.666-.588-.392-.392-.588-.9567-.588-1.694 0-.2707.028-.5507.084-.84l.7-3.99h1.484l-.672 3.836c-.0186.1213-.0373.2333-.056.336-.0093.1027-.014.2053-.014.308 0 .9147.4527 1.372 1.358 1.372.532 0 1.008-.1867 1.428-.56.4294-.3733.714-.9053.854-1.596l.644-3.696h1.484l-1.218 6.944h-1.316l.098-1.204c-.2893.42-.6626.756-1.12 1.008-.4573.2427-.952.364-1.484.364zm8.1737-8.4c-.28 0-.514-.08867-.7-.266-.1775-.17733-.2662-.39667-.2662-.658s.0887-.48067.2662-.658c.186-.17733.42-.266.7-.266s.508.08867.686.266c.186.17733.28.39667.28.658s-.094.48067-.28.658c-.178.17733-.406.266-.686.266zm-2.3522 8.232 1.218-6.944h1.4842l-1.2182 6.944zm3.4702 0 1.792-10.08h1.484l-1.792 10.08zm6.485.168c-.588 0-1.092-.1353-1.512-.406-.42-.28-.742-.6487-.966-1.106-.224-.4667-.336-.9847-.336-1.554 0-.812.172-1.5353.518-2.17.354-.6347.83-1.134 1.428-1.498.597-.364 1.264-.546 2.002-.546.588 0 1.068.11667 1.442.35.373.224.653.518.84.882l.742-4.2h1.484l-1.792 10.08h-1.33l.042-1.078c-.271.3267-.612.616-1.022.868-.411.252-.924.378-1.54.378zm.504-1.288c.485 0 .919-.1307 1.302-.392.382-.2613.681-.6067.896-1.036.224-.4387.336-.9193.336-1.442 0-.5507-.164-.994-.49-1.33-.318-.336-.752-.504-1.302-.504-.486 0-.92.1213-1.302.364-.374.2427-.672.574-.896.994-.215.4107-.322.8773-.322 1.4 0 .5507.158 1.0127.476 1.386.317.3733.751.56 1.302.56zm8.454 1.288c-.896 0-1.61-.266-2.142-.798s-.798-1.246-.798-2.142c0-.5973.102-1.1573.308-1.68.205-.532.494-.994.868-1.386.382-.40133.83-.714 1.344-.938.513-.224 1.078-.336 1.694-.336.606 0 1.124.12133 1.554.364.429.23333.756.55533.98.966.224.4013.336.8587.336 1.372 0 .2053-.024.4293-.07.672-.038.2333-.08.4387-.126.616h-5.404c-.019.1213-.029.2333-.029.336 0 .56.164.9893.491 1.288.326.2893.728.434 1.204.434.429 0 .802-.098 1.12-.294.326-.196.583-.4527.77-.77h1.498c-.206.4387-.486.8307-.84 1.176-.355.3453-.766.6207-1.232.826-.467.196-.976.294-1.526.294zm1.078-6.062c-.495 0-.962.1493-1.4.448-.439.2987-.752.7373-.938 1.316h3.92c.009-.0467.014-.0887.014-.126s0-.0747 0-.112c.009-.4667-.136-.8353-.434-1.106-.29-.28-.677-.42-1.162-.42zm3.864 5.894 1.218-6.944h1.344l-.098 1.246c.317-.42933.719-.77 1.204-1.022.485-.26133 1.031-.392 1.638-.392l-.28 1.554h-.406c-.411 0-.789.0653-1.134.196-.345.1213-.639.3313-.882.63s-.406.7047-.49 1.218l-.63 3.514z" fill="#e8effd"/><circle cx="12" cy="12" fill="#457eff" r="12"/><g clip-rule="evenodd" fill-rule="evenodd"><path d="m8.98931 5.18283c-.18191.96378-1.21881 6.39277-1.43184 7.49977-.21304 1.1071.7 2.0994 1.59642 2.0994h1.38281c.368 0 .9157.2584.7095 1.1997-.2061.9412-.4193 1.9095-.6289 2.8241s.8407 1.2834 1.2961.5704c.4554-.7131 3.8556-6.155 4.2469-6.8869s-.2496-1.8636-1.2143-1.8636-1.3639 0-1.8699 0-.5771-.3613-.3934-1.10551c.1836-.74422.4045-1.71771.7459-3.14438.3415-1.42667-1.0345-2.20162-1.7595-2.20162s-1.5046 0-1.71948 0c-.21493 0-.77839.04486-.96031 1.00864z" fill="#fff"/><path d="m65.1741 15.9223c1.1609 0 2.1538-.8344 2.3537-1.9779l.7209-4.12433h1.6785l.2981-1.67851h-1.6785l.1568-.90984c.0628-.3242.1804-.55427.353-.69023.1726-.13595.4314-.20393.7765-.20393.309 0 .5739-.2207.6296-.5246l.2175-1.18527h-.8471c-.8262 0-1.5138.1987-2.0628.5961-.5491.3974-.9073 1.06671-1.0746 2.00793l-.1569.90984h-1.0667l-.298 1.67851h1.0667zm-28.8145-1.5687c-.154.9059-.9389 1.5687-1.8578 1.5687h-5.2797l1.9295-10.98088c1.0474 0 1.8408.94587 1.6586 1.97732l-1.3135 7.43486zm6.3958 1.3961c-.57.2406-1.1844.3608-1.8432.3608-.6798 0-1.2759-.1516-1.7884-.4549-.5124-.3033-.9124-.7137-1.2-1.2314s-.4314-1.1112-.4314-1.7805c0-.6588.1176-1.2732.353-1.8432.2353-.57.5647-1.06933.9882-1.4981.4236-.42878.9177-.76082 1.4824-.99612.5648-.23531 1.1713-.35296 1.8197-.35296.6903 0 1.2942.14641 1.8119.43923.5176.29283.9229.69546 1.2157 1.2079.2928.51245.4393 1.10855.4393 1.78835 0 .6693-.1203 1.2889-.3608 1.8589-.2406.5699-.5726 1.0693-.9962 1.4981-.4235.4287-.9203.7634-1.4902 1.0039zm-1.5766-1.3804c-.4497 0-.834-.1569-1.153-.4706-.3189-.3138-.4784-.7582-.4784-1.3334 0-.5438.1046-1.0327.3137-1.4667.2092-.4341.4942-.7766.855-1.0275.3608-.25103.7608-.37653 1.2-.37653.4497 0 .834.15687 1.153.47063.319.3137.4785.7582.4785 1.3334 0 .5438-.1046 1.0327-.3138 1.4667-.2091.434-.4915.7765-.8471 1.0275-.3555.251-.7582.3765-1.2079.3765zm10.8509 1.3647c-.5805.251-1.2053.3765-1.8746.3765-.6903 0-1.2916-.1385-1.804-.4157-.5125-.2771-.9073-.6667-1.1844-1.1687-.2771-.5019-.4157-1.0876-.4157-1.7569s.1203-1.2968.3608-1.8824c.2405-.5857.5804-1.09811 1.0197-1.53734.4392-.43924.9516-.78174 1.5373-1.0275.5856-.24576 1.2236-.36864 1.9138-.36864 1.0039 0 1.8066.26668 2.4079.80003.6014.53336.902 1.27065.902 2.21185 0 0-1.6783.1255-1.9689-.2429-.1058-.1341-.1759-.2385-.2359-.3278-.1049-.1561-.1789-.2662-.3585-.40924-.2824-.22484-.6159-.32206-1.0447-.32206-.4497 0-.8628.12811-1.2392.3843-.3765.2562-.6746.604-.8942 1.0432s-.3294.936-.3294 1.4903c0 .5542.1516.9961.4549 1.3255s.6955.4942 1.1765.4942c.4288 0 .8236-.1125 1.1844-.3373.2255-.1406.34-.249.4984-.399.0949-.09.2057-.1949.3658-.3307.4269-.3624 2.0143-.2351 2.0143-.2351-.2196.6066-.5438 1.1347-.9725 1.5844-.4288.4497-.9334.8001-1.5138 1.051zm7.2898.3765c.6589 0 1.2733-.1202 1.8433-.3608.5699-.2405 1.0667-.5752 1.4902-1.0039.4236-.4288.7556-.9282.9961-1.4981.2406-.57.3608-1.1896.3608-1.8589 0-.6798-.1464-1.2759-.4392-1.78835-.2928-.51244-.6981-.91507-1.2157-1.2079-.5177-.29282-1.1216-.43923-1.8119-.43923-.6484 0-1.2549.11765-1.8197.35296-.5647.2353-1.0588.56734-1.4824.99612-.4235.42877-.7529.9281-.9882 1.4981-.2354.57-.353 1.1844-.353 1.8432 0 .6693.1438 1.2628.4314 1.7805s.6876.9281 1.2 1.2314c.5125.3033 1.1086.4549 1.7883.4549zm-.8863-2.2118c.319.3137.7033.4706 1.153.4706s.8523-.1255 1.2079-.3765.638-.5935.8471-1.0275c.2092-.434.3138-.9229.3138-1.4667 0-.5752-.1595-1.0197-.4785-1.3334-.319-.31376-.7033-.47063-1.153-.47063-.4392 0-.8392.1255-1.2.37653-.3608.2509-.6458.5934-.855 1.0275-.2091.434-.3137.9229-.3137 1.4667 0 .5752.1595 1.0196.4784 1.3334zm15.355 3.6727c-.6915 1.1201-1.9139 1.802-3.2302 1.802l2.1705-3.4584-1.8881-7.77344c1.2575 0 2.3483.869 2.6293 2.09474l.7747 3.38 2.1471-3.63749c.6721-1.13858 1.8957-1.83725 3.2179-1.83725z" fill="#457eff"/></g></svg>