<svg enable-background="new 0 0 14 14" viewBox="0 0 14 14" xmlns="http://www.w3.org/2000/svg"><path d="m1 0h4c.6 0 1 .4 1 1v4c0 .6-.4 1-1 1h-4c-.6 0-1-.4-1-1v-4c0-.6.4-1 1-1z" fill="#626f8a"/><path d="m1 0h4c.6 0 1 .4 1 1v4c0 .6-.4 1-1 1h-4c-.6 0-1-.4-1-1v-4c0-.6.4-1 1-1z" fill-opacity=".2"/><path d="m1 8h4c.6 0 1 .4 1 1v4c0 .6-.4 1-1 1h-4c-.6 0-1-.4-1-1v-4c0-.6.4-1 1-1z" fill="#626f8a"/><path d="m1 8h4c.6 0 1 .4 1 1v4c0 .6-.4 1-1 1h-4c-.6 0-1-.4-1-1v-4c0-.6.4-1 1-1z" fill-opacity=".2"/><path d="m9 0h4c.6 0 1 .4 1 1v4c0 .6-.4 1-1 1h-4c-.6 0-1-.4-1-1v-4c0-.6.4-1 1-1z" fill="#626f8a"/><path d="m9 0h4c.6 0 1 .4 1 1v4c0 .6-.4 1-1 1h-4c-.6 0-1-.4-1-1v-4c0-.6.4-1 1-1z" fill-opacity=".2"/><path d="m9 8h4c.6 0 1 .4 1 1v4c0 .6-.4 1-1 1h-4c-.6 0-1-.4-1-1v-4c0-.6.4-1 1-1z" fill="#626f8a"/><path d="m9 8h4c.6 0 1 .4 1 1v4c0 .6-.4 1-1 1h-4c-.6 0-1-.4-1-1v-4c0-.6.4-1 1-1z" fill-opacity=".2"/></svg>