<svg width="16" height="16" viewBox="0 0 16 16" fill="none" xmlns="http://www.w3.org/2000/svg">
<path d="M5.07709 9.40968V3.56315H6.80961V9.40968C6.80961 9.97366 6.68599 10.4585 6.43877 10.8641C6.19154 11.2658 5.85353 11.5748 5.42475 11.7912C4.99983 12.0075 4.52083 12.1157 3.98775 12.1157C3.43535 12.1157 2.94669 12.0229 2.52177 11.8375C2.09685 11.6521 1.76271 11.3682 1.51934 10.9857C1.27598 10.5995 1.1543 10.1108 1.1543 9.51977H2.8984C2.8984 9.8288 2.9409 10.0741 3.02588 10.2557C3.11473 10.4372 3.24027 10.5666 3.40251 10.6439C3.56476 10.7211 3.75983 10.7598 3.98775 10.7598C4.20793 10.7598 4.39915 10.7076 4.56139 10.6033C4.72363 10.499 4.84918 10.3464 4.93802 10.1456C5.03073 9.94469 5.07709 9.6994 5.07709 9.40968Z" fill="#C8C869"/>
<path d="M12.9224 9.79211C12.9224 9.64145 12.8993 9.50625 12.8529 9.3865C12.8104 9.26289 12.7293 9.15086 12.6095 9.05043C12.4898 8.94613 12.3218 8.84376 12.1054 8.74332C11.8891 8.64289 11.609 8.53859 11.2652 8.43043C10.8828 8.30681 10.5197 8.16775 10.1759 8.01323C9.83597 7.85872 9.53466 7.67909 9.27198 7.47436C9.01317 7.26576 8.80843 7.02433 8.65778 6.75006C8.51099 6.47579 8.43759 6.1571 8.43759 5.79399C8.43759 5.44246 8.51485 5.12377 8.66937 4.83792C8.82389 4.5482 9.04021 4.30097 9.31834 4.09624C9.59647 3.88764 9.92482 3.72733 10.3034 3.6153C10.6858 3.50328 11.1049 3.44727 11.5608 3.44727C12.1827 3.44727 12.7254 3.55929 13.189 3.78334C13.6525 4.00739 14.0118 4.31449 14.2667 4.70464C14.5256 5.0948 14.655 5.54097 14.655 6.04315H12.9282C12.9282 5.79592 12.8761 5.5796 12.7718 5.39418C12.6714 5.20489 12.5168 5.05617 12.3082 4.94801C12.1035 4.83985 11.8447 4.78577 11.5318 4.78577C11.2305 4.78577 10.9794 4.83212 10.7785 4.92483C10.5777 5.01368 10.427 5.13536 10.3266 5.28988C10.2261 5.44053 10.1759 5.6105 10.1759 5.79978C10.1759 5.94271 10.2107 6.07212 10.2802 6.188C10.3536 6.30389 10.4618 6.41205 10.6047 6.51249C10.7476 6.61293 10.9234 6.70757 11.132 6.79641C11.3406 6.88526 11.582 6.97218 11.8563 7.05716C12.316 7.19623 12.7196 7.35267 13.0673 7.52651C13.4188 7.70034 13.7124 7.89541 13.948 8.11174C14.1837 8.32806 14.3614 8.57336 14.4811 8.84762C14.6009 9.12189 14.6608 9.43285 14.6608 9.78052C14.6608 10.1475 14.5893 10.4758 14.4464 10.7656C14.3034 11.0553 14.0968 11.3006 13.8264 11.5014C13.556 11.7023 13.2334 11.8549 12.8587 11.9592C12.484 12.0635 12.0649 12.1157 11.6013 12.1157C11.1841 12.1157 10.7727 12.0616 10.3671 11.9534C9.96151 11.8414 9.59261 11.6733 9.2604 11.4493C8.93205 11.2252 8.66937 10.9394 8.47236 10.5917C8.27535 10.2441 8.17685 9.83267 8.17685 9.35753H9.92095C9.92095 9.62021 9.96151 9.84232 10.0426 10.0239C10.1238 10.2054 10.2377 10.3522 10.3845 10.4643C10.5352 10.5763 10.7129 10.6574 10.9176 10.7076C11.1262 10.7578 11.3541 10.7829 11.6013 10.7829C11.9026 10.7829 12.1499 10.7405 12.343 10.6555C12.54 10.5705 12.6849 10.4527 12.7776 10.302C12.8742 10.1514 12.9224 9.98139 12.9224 9.79211Z" fill="#C8C869"/>
</svg>
