<svg width="16" height="16" viewBox="0 0 16 16" fill="none" xmlns="http://www.w3.org/2000/svg">
<path d="M5.75928 3C5.46656 3 5.18582 3.11628 4.97884 3.32327C4.77185 3.53026 4.65557 3.81099 4.65557 4.10371V6.31114C4.65557 6.60386 4.53929 6.88459 4.3323 7.09158C4.12531 7.29857 3.84458 7.41485 3.55186 7.41485H3V8.51856H3.55186C3.84458 8.51856 4.12531 8.63485 4.3323 8.84183C4.53929 9.04882 4.65557 9.32955 4.65557 9.62228V11.8297C4.65557 12.1224 4.77185 12.4032 4.97884 12.6101C5.18582 12.8171 5.46656 12.9334 5.75928 12.9334H6.86299V11.8297H5.75928V9.07042C5.75928 8.7777 5.643 8.49696 5.43601 8.28998C5.22903 8.08299 4.94829 7.96671 4.65557 7.96671C4.94829 7.96671 5.22903 7.85042 5.43601 7.64344C5.643 7.43645 5.75928 7.15572 5.75928 6.86299V4.10371H6.86299V3M10.1741 3C10.4669 3 10.7476 3.11628 10.9546 3.32327C11.1616 3.53026 11.2778 3.81099 11.2778 4.10371V6.31114C11.2778 6.60386 11.3941 6.88459 11.6011 7.09158C11.8081 7.29857 12.0888 7.41485 12.3816 7.41485H12.9334V8.51856H12.3816C12.0888 8.51856 11.8081 8.63485 11.6011 8.84183C11.3941 9.04882 11.2778 9.32955 11.2778 9.62228V11.8297C11.2778 12.1224 11.1616 12.4032 10.9546 12.6101C10.7476 12.8171 10.4669 12.9334 10.1741 12.9334H9.07042V11.8297H10.1741V9.07042C10.1741 8.7777 10.2904 8.49696 10.4974 8.28998C10.7044 8.08299 10.9851 7.96671 11.2778 7.96671C10.9851 7.96671 10.7044 7.85042 10.4974 7.64344C10.2904 7.43645 10.1741 7.15572 10.1741 6.86299V4.10371H9.07042V3H10.1741Z" fill="#C8C869"/>
</svg>
