<svg width="16" height="16" viewBox="0 0 16 16" fill="none" xmlns="http://www.w3.org/2000/svg">
<rect x="4.375" y="5.375" width="9.25" height="7.25" stroke="#9865CB" stroke-width="0.75"/>
<mask id="path-2-inside-1_203_112699" fill="white">
<path d="M2 3H10V9H2V3Z"/>
</mask>
<path d="M2 3V2.25H1.25V3H2ZM2 3.75H10V2.25H2V3.75ZM2.75 9V3H1.25V9H2.75Z" fill="#9865CB" mask="url(#path-2-inside-1_203_112699)"/>
<path d="M6.91863 9.11392L4.61295 12.3419C4.56567 12.4081 4.61298 12.5 4.69432 12.5H12.7919C12.8758 12.5 12.9224 12.403 12.87 12.3375L11.0898 10.1123C11.0463 10.0579 10.9619 10.0636 10.926 10.1233L9.57847 12.3692C9.54142 12.431 9.45321 12.4345 9.41135 12.3759L7.08137 9.11392C7.04149 9.05809 6.95851 9.05809 6.91863 9.11392Z" fill="#9865CB" stroke="#9865CB" stroke-width="0.5"/>
<circle cx="11" cy="7" r="1" fill="#9865CB"/>
</svg>
