<svg width="10" height="11" viewBox="0 0 10 11" fill="none" xmlns="http://www.w3.org/2000/svg">
<path d="M8.79171 4.29199L5.29171 7.80241C5.25004 7.84408 5.2049 7.87352 5.15629 7.89074C5.10768 7.90824 5.0556 7.91699 5.00004 7.91699C4.94449 7.91699 4.8924 7.90824 4.84379 7.89074C4.79518 7.87352 4.75004 7.84408 4.70837 7.80241L1.19796 4.29199C1.10074 4.19477 1.05212 4.07324 1.05212 3.92741C1.05212 3.78158 1.10421 3.65658 1.20837 3.55241C1.31254 3.44824 1.43407 3.39616 1.57296 3.39616C1.71185 3.39616 1.83337 3.44824 1.93754 3.55241L5.00004 6.61491L8.06254 3.55241C8.15976 3.45519 8.27949 3.40658 8.42171 3.40658C8.56421 3.40658 8.68754 3.45866 8.79171 3.56283C8.89587 3.66699 8.94796 3.78852 8.94796 3.92741C8.94796 4.0663 8.89587 4.18783 8.79171 4.29199Z" fill="#96A2BE"/>
</svg>
