<svg fill="none" height="13" viewBox="0 0 13 13" width="13" xmlns="http://www.w3.org/2000/svg"><g clip-rule="evenodd" fill="#96a2be" fill-rule="evenodd"><path d="m6.29326 1.97052c-2.61256 0-4.73046 2.11789-4.73046 4.73045s2.1179 4.73043 4.73046 4.73043 4.73044-2.11787 4.73044-4.73043-2.11788-4.73045-4.73044-4.73045zm-5.426072 4.73045c0-2.99673 2.429332-5.42607 5.426072-5.42607s5.42604 2.42934 5.42604 5.42607c0 2.99674-2.4293 5.42603-5.42604 5.42603s-5.426072-2.42929-5.426072-5.42603z" opacity=".5"/><path d="m5.85938 4.53071c0-.24106.19541-.43647.43646-.43647h.00611c.24105 0 .43647.19541.43647.43647 0 .24105-.19542.43647-.43647.43647h-.00611c-.24105 0-.43646-.19542-.43646-.43647z" opacity=".5"/><path d="m6.29625 5.63135c.21539 0 .39.17461.39.39v3.21581c0 .21539-.17461.39-.39.39s-.39-.17461-.39-.39v-3.21581c0-.21539.17461-.39.39-.39z" opacity=".5"/></g></svg>