<svg width="14" height="19" viewBox="0 0 14 19" fill="none" xmlns="http://www.w3.org/2000/svg">
<path d="M9.648 12.692L9.31419 12.0204L8.898 12.2273V12.692H9.648ZM4.35156 12.6923H5.10156V12.2275L4.6853 12.0206L4.35156 12.6923ZM12.208 7.35303C12.208 9.39688 11.0309 11.1672 9.31419 12.0204L9.98181 13.3636C12.1887 12.2668 13.708 9.988 13.708 7.35303H12.208ZM6.99951 2.14453C9.87609 2.14453 12.208 4.47645 12.208 7.35303H13.708C13.708 3.64803 10.7045 0.644531 6.99951 0.644531V2.14453ZM1.79102 7.35303C1.79102 4.47645 4.12294 2.14453 6.99951 2.14453V0.644531C3.29451 0.644531 0.291016 3.64803 0.291016 7.35303H1.79102ZM4.6853 12.0206C2.96835 11.1675 1.79102 9.39707 1.79102 7.35303H0.291016C0.291016 9.98824 1.81056 12.2672 4.01782 13.3639L4.6853 12.0206ZM5.10156 14.7409V12.6923H3.60156V14.7409H5.10156ZM4.90712 14.5465C5.01451 14.5465 5.10156 14.6336 5.10156 14.7409H3.60156C3.60156 15.462 4.18608 16.0465 4.90712 16.0465V14.5465ZM9.09245 14.5465H4.90712V16.0465H9.09245V14.5465ZM8.898 14.7409C8.898 14.6336 8.98506 14.5465 9.09245 14.5465V16.0465C9.81349 16.0465 10.398 15.462 10.398 14.7409H8.898ZM8.898 12.692V14.7409H10.398V12.692H8.898Z" fill="#5E6A86"/>
<path fill-rule="evenodd" clip-rule="evenodd" d="M5.88127 5.26812C5.8114 5.64936 5.41316 7.79688 5.33135 8.23479C5.24953 8.6727 5.60019 9.06522 5.94447 9.06522C6.28875 9.06522 6.33426 9.06522 6.47557 9.06522C6.61688 9.06522 6.82726 9.16746 6.74807 9.53979C6.66888 9.91212 6.587 10.2951 6.5065 10.6569C6.42601 11.0187 6.8294 11.1646 7.00431 10.8825C7.17921 10.6005 8.4851 8.44781 8.63537 8.15831C8.78565 7.86881 8.5395 7.42113 8.169 7.42113C7.7985 7.42113 7.64519 7.42113 7.45084 7.42113C7.2565 7.42113 7.22922 7.27822 7.29976 6.98384C7.37029 6.68945 7.45511 6.30437 7.58625 5.74003C7.71739 5.17568 7.18893 4.86914 6.91047 4.86914C6.63202 4.86914 6.33263 4.86914 6.25008 4.86914C6.16754 4.86914 5.95113 4.88689 5.88127 5.26812Z" fill="#5E6A86"/>
<path d="M4.35254 17.7012L9.86979 17.7012" stroke="#5E6A86" stroke-width="1.5" stroke-linecap="round"/>
</svg>
