<svg width="18" height="18" viewBox="0 0 18 18" fill="none" xmlns="http://www.w3.org/2000/svg">
<path d="M1.20312 15.8161H1.64768M1.20312 15.8161V3.32632C1.20312 2.77513 1.42209 2.24651 1.81184 1.85676C2.20159 1.46701 2.73021 1.24805 3.2814 1.24805H14.7174C15.2686 1.24805 15.7973 1.46701 16.187 1.85676C16.5768 2.24651 16.7957 2.77513 16.7957 3.32632V11.4949C16.7957 12.0461 16.5768 12.5747 16.187 12.9645C15.7973 13.3542 15.2686 13.5732 14.7174 13.5732H5.70018C5.52196 13.5732 5.34598 13.6133 5.18534 13.6905C5.02468 13.7677 4.88344 13.88 4.77204 14.0191L2.8684 16.3989C2.74756 16.5503 2.58264 16.6605 2.39645 16.7141C2.21027 16.7677 2.01202 16.7622 1.82914 16.6982C1.64626 16.6342 1.48778 16.515 1.37563 16.357C1.26348 16.199 1.2032 16.0099 1.20312 15.8161Z" stroke="#5E6A86" stroke-width="1.5"/>
<path d="M5.37109 5.88867H13.3066" stroke="#5E6A86" stroke-width="1.5" stroke-linecap="round"/>
<path d="M5.37109 9.41992H11.5898" stroke="#5E6A86" stroke-width="1.5" stroke-linecap="round"/>
</svg>
