<svg width="18" height="18" viewBox="0 0 18 18" fill="none" xmlns="http://www.w3.org/2000/svg">
<path d="M10.3808 16.5892H7.61821C7.44512 16.5893 7.27722 16.5301 7.14235 16.4216C7.00748 16.3131 6.91376 16.1618 6.87672 15.9927L6.56782 14.5628C6.15575 14.3823 5.76502 14.1565 5.40283 13.8896L4.00863 14.3336C3.8436 14.3863 3.66554 14.3808 3.50401 14.3183C3.34249 14.2558 3.20721 14.1399 3.12065 13.9898L1.73632 11.5984C1.65067 11.4482 1.61852 11.2734 1.64513 11.1026C1.67173 10.9317 1.75553 10.775 1.8828 10.658L2.96431 9.67137C2.91512 9.22443 2.91512 8.77344 2.96431 8.3265L1.8828 7.34214C1.75535 7.22509 1.67144 7.06822 1.64483 6.89723C1.61821 6.72624 1.65047 6.55129 1.73632 6.40104L3.11762 4.00806C3.20418 3.85802 3.33945 3.74211 3.50098 3.67957C3.66251 3.61703 3.84057 3.61162 4.00559 3.66425L5.39979 4.10824C5.58498 3.97163 5.77775 3.84412 5.9766 3.72876C6.16861 3.62099 6.36594 3.52308 6.56782 3.4358L6.87747 2.00745C6.91434 1.83836 7.00789 1.68694 7.14261 1.5783C7.27734 1.46967 7.44515 1.41034 7.61821 1.41016H10.3808C10.5539 1.41034 10.7217 1.46967 10.8564 1.5783C10.9911 1.68694 11.0847 1.83836 11.1215 2.00745L11.4342 3.43656C11.6467 3.53067 11.8547 3.63617 12.0558 3.75381C12.2433 3.86234 12.4247 3.98149 12.5992 4.10976L13.9942 3.66577C14.1591 3.61334 14.337 3.61884 14.4984 3.68137C14.6597 3.7439 14.7949 3.8597 14.8814 4.00957L16.2627 6.40256C16.4388 6.71145 16.3781 7.10231 16.1162 7.3429L15.0347 8.32954C15.0839 8.77648 15.0839 9.22747 15.0347 9.67441L16.1162 10.661C16.3781 10.9024 16.4388 11.2925 16.2627 11.6014L14.8814 13.9944C14.7948 14.1444 14.6596 14.2603 14.498 14.3229C14.3365 14.3854 14.1585 14.3908 13.9934 14.3382L12.5992 13.8942C12.2373 14.1609 11.8468 14.3864 11.435 14.5666L11.1215 15.9927C11.0845 16.1617 10.9909 16.3129 10.8562 16.4214C10.7215 16.5299 10.5538 16.5891 10.3808 16.5892V16.5892ZM8.99647 5.96388C8.19133 5.96388 7.41915 6.28372 6.84983 6.85305C6.2805 7.42238 5.96066 8.19455 5.96066 8.9997C5.96066 9.80485 6.2805 10.577 6.84983 11.1463C7.41915 11.7157 8.19133 12.0355 8.99647 12.0355C9.80162 12.0355 10.5738 11.7157 11.1431 11.1463C11.7124 10.577 12.0323 9.80485 12.0323 8.9997C12.0323 8.19455 11.7124 7.42238 11.1431 6.85305C10.5738 6.28372 9.80162 5.96388 8.99647 5.96388V5.96388Z" stroke="#5E6A86" stroke-width="1.5"/>
</svg>
