<svg width="20" height="16" viewBox="0 0 20 16" fill="none" xmlns="http://www.w3.org/2000/svg">
<path fill-rule="evenodd" clip-rule="evenodd" d="M10.3667 0.743813C10.1175 0.61925 9.8243 0.61925 9.57517 0.743813L0.726101 5.16835C0.426309 5.31824 0.236938 5.62465 0.236938 5.95983C0.236938 6.29501 0.426309 6.60142 0.726101 6.75132L3.61307 8.1948L0.736346 9.58732C0.432814 9.73425 0.239177 10.0409 0.237014 10.3781C0.234851 10.7154 0.424538 11.0245 0.72616 11.1753L9.57523 15.5998C9.82436 15.7244 10.1176 15.7244 10.3667 15.5998L19.2158 11.1753C19.5109 11.0277 19.6995 10.7282 19.7048 10.3982C19.7102 10.0683 19.5315 9.76274 19.2413 9.60563L16.4881 8.11512L19.2157 6.75132C19.5155 6.60142 19.7049 6.29501 19.7049 5.95983C19.7049 5.62465 19.5155 5.31824 19.2157 5.16835L10.3667 0.743813ZM14.5556 9.0814L10.3667 11.1759C10.1175 11.3004 9.8243 11.3004 9.57517 11.1759L5.60112 9.18883C5.56665 9.21203 5.53012 9.23308 5.49163 9.25171L3.12633 10.3967L9.97097 13.819L16.9037 10.3526L14.5556 9.0814ZM9.97091 9.39501L3.10056 5.95983L9.97091 2.52465L16.8413 5.95983L9.97091 9.39501Z" fill="#5E6A86"/>
</svg>
