<svg width="15" height="18" viewBox="0 0 15 18" fill="none" xmlns="http://www.w3.org/2000/svg">
<path d="M13.25 14.25H5C4.5875 14.25 4.2345 14.1033 3.941 13.8097C3.647 13.5157 3.5 13.1625 3.5 12.75V2.25C3.5 1.8375 3.647 1.48425 3.941 1.19025C4.2345 0.89675 4.5875 0.75 5 0.75H10.25L14.75 5.25V12.75C14.75 13.1625 14.6033 13.5157 14.3097 13.8097C14.0157 14.1033 13.6625 14.25 13.25 14.25ZM9.5 6V2.25H5V12.75H13.25V6H9.5ZM2 17.25C1.5875 17.25 1.2345 17.1033 0.941 16.8097C0.647 16.5157 0.5 16.1625 0.5 15.75V5.25H2V15.75H10.25V17.25H2ZM5 2.25V6V2.25V12.75V2.25Z" fill="#457EFF"/>
</svg>
