<svg width="18" height="18" viewBox="0 0 18 18" fill="none" xmlns="http://www.w3.org/2000/svg">
<path d="M12.269 16.6557V14.4479C12.2979 14.0811 12.2483 13.7123 12.1237 13.3662C11.999 13.02 11.802 12.7043 11.5459 12.4402C13.9614 12.1709 16.4999 11.2555 16.4999 7.05539C16.4997 5.98138 16.0866 4.94856 15.346 4.17069C15.6967 3.23106 15.6719 2.19244 15.2768 1.27061C15.2768 1.27061 14.3691 1.00137 12.269 2.4091C10.5059 1.93126 8.64739 1.93126 6.88427 2.4091C4.78421 1.00137 3.87649 1.27061 3.87649 1.27061C3.48138 2.19244 3.45659 3.23106 3.80726 4.17069C3.06118 4.95433 2.64763 5.99648 2.65338 7.07847C2.65338 11.2478 5.19191 12.1632 7.60736 12.4632C7.35428 12.7248 7.15909 13.0366 7.03451 13.3786C6.90993 13.7205 6.85873 14.0849 6.88427 14.4479V16.6557" stroke="#5E6A86" stroke-width="1.65" stroke-linecap="round" stroke-linejoin="round"/>
<path d="M6.88477 15.1183C4.57701 15.8668 2.65388 15.1183 1.5 12.8105" stroke="#5E6A86" stroke-width="1.65" stroke-linecap="round" stroke-linejoin="round"/>
</svg>
