<svg viewBox="0 0 14.42 6.38" xmlns="http://www.w3.org/2000/svg"><g fill="#457eff"><path d="m10.84 6.38h-1.84a.55.55 0 0 1 0-1.1h1.82a2.87 2.87 0 0 0 1-.17 2.5 2.5 0 0 0 .81-.47 2 2 0 0 0 .51-.64 1.74 1.74 0 0 0 0-1.54 2 2 0 0 0 -.52-.68 2.5 2.5 0 0 0 -.81-.47 2.87 2.87 0 0 0 -1-.17h-1.81a.55.55 0 0 1 -.53-.59.55.55 0 0 1 .53-.55h1.82a4.12 4.12 0 0 1 1.35.23 3.68 3.68 0 0 1 1.15.68 3 3 0 0 1 .79 1 2.84 2.84 0 0 1 0 2.5 3 3 0 0 1 -.79 1 3.68 3.68 0 0 1 -1.15.68 4.12 4.12 0 0 1 -1.33.29zm-5.45 0h-1.81a4.07 4.07 0 0 1 -1.35-.23 3.85 3.85 0 0 1 -1.16-.68 3 3 0 0 1 -1.07-2.28 3 3 0 0 1 1.08-2.28 3.75 3.75 0 0 1 2.5-.91h1.81a.55.55 0 1 1 0 1.1h-1.81a2.69 2.69 0 0 0 -1.78.64 1.92 1.92 0 0 0 -.7 1.45 1.92 1.92 0 0 0 .7 1.45 2.56 2.56 0 0 0 .8.47 2.93 2.93 0 0 0 1 .17h1.79a.55.55 0 0 1 0 1.1z"/><path d="m9.32 3.74h-4.22a.55.55 0 0 1 0-1.1h4.22a.55.55 0 0 1 0 1.1z"/></g></svg>