<svg fill="none" height="16" viewBox="0 0 4 16" width="4" xmlns="http://www.w3.org/2000/svg"><path d="m.370239 8.07168c0 .43223.171704.84676.477338 1.15239.305633.30564.720163.47734 1.152393.47734s.84676-.1717 1.1524-.47734c.30563-.30563.47733-.72016.47733-1.15239s-.1717-.84676-.47733-1.1524c-.30564-.30563-.72017-.47734-1.1524-.47734s-.84676.17171-1.152393.47734c-.305634.30564-.477338.72017-.477338 1.1524zm0-5.6892c0 .43223.171704.84676.477338 1.15239.305633.30564.720163.47734 1.152393.47734s.84676-.1717 1.1524-.47734c.30563-.30563.47733-.72016.47733-1.15239s-.1717-.84676-.47733-1.1524c-.30564-.30563-.72017-.477333-1.1524-.477333s-.84676.171703-1.152393.477333c-.305634.30564-.477338.72017-.477338 1.1524zm0 11.37842c0 .4322.171704.8467.477338 1.1524.305633.3056.720163.4773 1.152393.4773s.84676-.1717 1.1524-.4773c.30563-.3057.47733-.7202.47733-1.1524 0-.4323-.1717-.8468-.47733-1.1524-.30564-.3057-.72017-.4774-1.1524-.4774s-.84676.1717-1.152393.4774c-.305634.3056-.477338.7201-.477338 1.1524z" fill="#626f8a"/><path d="m.370239 8.07168c0 .43223.171704.84676.477338 1.15239.305633.30564.720163.47734 1.152393.47734s.84676-.1717 1.1524-.47734c.30563-.30563.47733-.72016.47733-1.15239s-.1717-.84676-.47733-1.1524c-.30564-.30563-.72017-.47734-1.1524-.47734s-.84676.17171-1.152393.47734c-.305634.30564-.477338.72017-.477338 1.1524zm0-5.6892c0 .43223.171704.84676.477338 1.15239.305633.30564.720163.47734 1.152393.47734s.84676-.1717 1.1524-.47734c.30563-.30563.47733-.72016.47733-1.15239s-.1717-.84676-.47733-1.1524c-.30564-.30563-.72017-.477333-1.1524-.477333s-.84676.171703-1.152393.477333c-.305634.30564-.477338.72017-.477338 1.1524zm0 11.37842c0 .4322.171704.8467.477338 1.1524.305633.3056.720163.4773 1.152393.4773s.84676-.1717 1.1524-.4773c.30563-.3057.47733-.7202.47733-1.1524 0-.4323-.1717-.8468-.47733-1.1524-.30564-.3057-.72017-.4774-1.1524-.4774s-.84676.1717-1.152393.4774c-.305634.3056-.477338.7201-.477338 1.1524z" fill="#000" fill-opacity=".2"/></svg>