<svg fill="none" height="11" viewBox="0 0 8 11" width="8" xmlns="http://www.w3.org/2000/svg"><path clip-rule="evenodd" d="m1.33333.833252h3.52867c.1768.000035.34634.065907.47133.183128l2.47134 2.31687c.12503.11718.19529.27613.19533.44188v5.80812c0 .33152-.14048.64945-.39052.88385-.25005.2345-.58919.3662-.94281.3662h-5.33334c-.353619 0-.692757-.1317-.942806-.3662-.250048-.2344-.390524-.55233-.390524-.88385v-7.5c0-.33152.140476-.64946.390524-.88388.250049-.234422.589187-.366118.942806-.366118zm3.66667.937498v1.25c0 .16576.07024.32473.19526.44194.12503.11721.2946.18306.47141.18306h1.33333z" fill="#5e6a86" fill-rule="evenodd"/></svg>