<svg fill="none" height="11" viewBox="0 0 12 11" width="12" xmlns="http://www.w3.org/2000/svg"><path clip-rule="evenodd" d="m5.99953.176025c-.21569 0-.39054.174848-.39054.390534v4.295841h-4.29585c-.21569 0-.390533.17485-.390533.39053 0 .21569.174843.39053.390533.39053h4.29585v4.29588c0 .21566.17485.39056.39054.39056.21568 0 .39053-.1749.39053-.39056v-4.29588h4.29584c.2157 0 .3906-.17484.3906-.39053 0-.21568-.1749-.39053-.3906-.39053h-4.29584v-4.295841c0-.215686-.17485-.390534-.39053-.390534z" fill="#457eff" fill-rule="evenodd"/></svg>