<svg fill="none" height="25" viewBox="0 0 25 25" width="25" xmlns="http://www.w3.org/2000/svg" xmlns:xlink="http://www.w3.org/1999/xlink"><clipPath id="a"><path d="m3.2998 3.38867h18v18h-18z"/></clipPath><circle cx="12.2998" cy="12.3887" fill="#3dc3e8" r="12"/><g clip-path="url(#a)" fill="#fff"><path d="m21.2364 12.387c0 1.184-1.4828 2.3061-3.7561 3.002.5246 2.3171.2914 4.1605-.736 4.7507-.2368.1385-.5136.2041-.816.2041v-.8125c.1676 0 .3024-.0328.4153-.0947.4955-.2842.7104-1.3662.5428-2.7579-.04-.3425-.1056-.7032-.1858-1.0711-.714.1749-1.4937.3097-2.3134.3971-.4919.674-1.0019 1.286-1.5156 1.8216 1.1877 1.1039 2.3025 1.7087 3.0603 1.7087v.8124c-1.0019 0-2.3134-.7141-3.6396-1.9528-1.3261 1.2315-2.63766 1.9382-3.63955 1.9382v-.8124c.75415 0 1.87265-.6011 3.06035-1.6977-.5101-.5356-1.0201-1.144-1.5047-1.818-.82336-.0874-1.60301-.2222-2.31708-.4008-.0838.3644-.14573.7178-.18945 1.0566-.17123 1.3917.04008 2.4737.53191 2.7615.1093.0656.25138.0948.41897.0948v.8124c-.30603 0-.58292-.0656-.82337-.204-1.02374-.5902-1.25327-2.4301-.725-4.7399-2.26608-.6995-3.74159-1.8179-3.74159-2.9983 0-1.1841 1.48279-2.3062 3.75616-3.00204-.52462-2.31709-.29145-4.16056.73594-4.75076.2368-.13844.51369-.20402.81972-.20402 1.00189 0 2.31349.71407 3.63959 1.95277 1.3261-1.23141 2.6377-1.9382 3.6396-1.9382.306 0 .5829.06558.8233.20402 1.0238.59021 1.2533 2.43003.725 4.73983 2.2588.6959 3.7343 1.818 3.7343 2.9984zm-4.7434 2.43c-.1348-.47-.3024-.9545-.4919-1.4391-.1493.2915-.306.5829-.4772.8744-.1676.2915-.3461.5756-.5247.8525.5174-.0765 1.0165-.1712 1.4938-.2878zm-1.6686-3.88c-.2842-.4919-.5757-.95819-.878-1.39174-.5429-.04736-1.093-.07286-1.6468-.07286-.5501 0-1.1002.0255-1.6394.06922-.3024.43354-.5975.89628-.88169 1.38438-.27689.4773-.52827.9619-.75779 1.45.22588.4882.4809.9764.75414 1.4537.28414.4918.57564.9582.87804 1.3917.5428.0474 1.0929.0729 1.6467.0729.5501 0 1.1003-.0255 1.6395-.0693.3024-.4335.5975-.8962.8816-1.3844.2769-.4772.5283-.9618.7578-1.45-.2295-.4882-.4809-.9764-.7541-1.4536zm1.1767.4736c.1968-.4882.3644-.9764.5028-1.45001-.4773-.11658-.98-.21495-1.501-.29146.1785.28053.357.56837.5246.86347.1676.2914.3243.5865.4736.878zm-3.6942-3.88732c-.3388.34974-.6776.73957-1.0128 1.16583.3279-.01458.6631-.02551 1.0019-.02551.3424 0 .6813.00729 1.0128.02551-.3279-.42626-.6667-.81609-1.0019-1.16583zm-2.71056 2.14585c-.51733.07651-1.01645.17123-1.49372.28782.1348.46995.30239.95455.49184 1.43905.14937-.2914.30603-.5829.47726-.8744.17123-.2914.34611-.57558.52462-.85247zm2.69236 7.58157c.3388-.3498.6776-.7396 1.0128-1.1659-.3279.0146-.6631.0255-1.0019.0255-.3424 0-.6813-.0072-1.0128-.0255.3279.4263.6667.8161 1.0019 1.1659zm-2.696-2.1459c-.17852-.2805-.35703-.5683-.52462-.8634-.16759-.2915-.32425-.5829-.47362-.8744-.19674.4882-.36432.9764-.50277 1.45.47727.1129.98003.2113 1.50101.2878zm-3.29711-4.5613c-1.2897.5501-2.124 1.2715-2.124 1.8435s.8343 1.297 2.124 1.8434c.31331.1348.65578.2551 1.00917.368.20766-.7141.4809-1.4573.81972-2.2187-.33517-.7578-.60477-1.4974-.80879-2.2078-.36068.1129-.70314.2368-1.0201.3716zm1.96005-5.20616c-.49548.28417-.71043 1.36621-.54284 2.75792.04007.34246.10565.70314.1858 1.07111.71407-.17488 1.49372-.30968 2.3134-.39711.4919-.674 1.0019-1.28606 1.5156-1.82161-1.1877-1.1039-2.30249-1.70867-3.06028-1.70867-.16394.00364-.30238.03643-.41168.09836zm8.64176 2.77614c.1712-1.39171-.0401-2.47375-.5319-2.76156-.1093-.06558-.2514-.09473-.419-.09473-.7542 0-1.8726.60113-3.0603 1.69774.51.53556 1.0201 1.14397 1.5046 1.81797.8234.08744 1.603.22224 2.3171.40075.0838-.36796.1494-.72135.1895-1.06017zm1.4026 2.43002c-.3133-.1348-.6558-.255-1.0092-.368-.2076.7141-.4809 1.4573-.8197 2.2188.3352.7578.6048 1.4973.8088 2.2078.3607-.113.7031-.2369 1.0237-.3717 1.2897-.5501 2.124-1.2714 2.124-1.8434-.0036-.572-.8379-1.297-2.1276-1.8435z"/><path d="m12.2958 10.7221c.9195 0 1.665.7454 1.665 1.6649 0 .9196-.7455 1.665-1.665 1.665s-1.6649-.7454-1.6649-1.665c0-.9195.7454-1.6649 1.6649-1.6649z"/></g></svg>