<svg fill="none" height="21" viewBox="0 0 20 21" width="20" xmlns="http://www.w3.org/2000/svg" xmlns:xlink="http://www.w3.org/1999/xlink"><clipPath id="a"><path d="m2.5 3.24377h15v15h-15z"/></clipPath><circle cx="10" cy="10.7438" fill="#96a2be" r="10"/><g clip-path="url(#a)" fill="#192030" opacity=".7"><path d="m17.4474 10.7423c0 .9867-1.2356 1.9218-3.1301 2.5017.4372 1.9309.2429 3.4671-.6133 3.9589-.1973.1154-.4281.17-.68.17v-.677c.1396 0 .2519-.0273.3461-.0789.4129-.2368.592-1.1385.4523-2.2983-.0334-.2854-.088-.5859-.1548-.8926-.5951.1457-1.2448.2581-1.9279.3309-.4098.5617-.8349 1.0718-1.263 1.5181.9898.9199 1.9188 1.4238 2.5503 1.4238v.6771c-.8349 0-1.9279-.5951-3.03299-1.6273-1.10511 1.0261-2.19807 1.6151-3.03298 1.6151v-.677c.62846 0 1.56051-.5009 2.55026-1.4148-.42505-.4463-.85009-.9533-1.25388-1.515-.68614-.0728-1.33585-.1852-1.93091-.3339-.06982.3036-.12144.5981-.15787.8804-.14269 1.1598.0334 2.0615.44326 2.3013.09108.0547.20949.079.34914.079v.677c-.25502 0-.48576-.0547-.68614-.17-.85312-.4919-1.04439-2.025-.60417-3.9499-1.8884-.5829-3.11799-1.515-3.11799-2.4986 0-.98673 1.23566-1.92182 3.13014-2.5017-.43719-1.9309-.24288-3.46713.61327-3.95896.19735-.11537.42808-.17002.68311-.17002.8349 0 1.92787.59506 3.03295 1.6273 1.1051-1.02617 2.1981-1.61516 3.033-1.61516.255 0 .4858.05465.6862.17002.8531.49183 1.0443 2.02502.6041 3.94986 1.8823.57988 3.1119 1.51497 3.1119 2.49866zm-3.9529 2.025c-.1123-.3916-.2519-.7954-.4098-1.1992-.1245.2429-.255.4857-.3977.7286-.1397.2429-.2885.4797-.4372.7104.4311-.0637.847-.1426 1.2447-.2398zm-1.3905-3.23335c-.2368-.40987-.4796-.79848-.7316-1.15976-.4524-.03947-.9108-.06072-1.3723-.06072-.45845 0-.91689.02125-1.36622.05768-.25199.36129-.49791.74686-.73472 1.15369-.23074.39771-.44022.80146-.63149 1.20836.18823.4068.40075.8136.62846 1.2113.2368.4099.47969.7985.73168 1.1598.45236.0395.9108.0607 1.37229.0607.4584 0 .9169-.0212 1.3662-.0577.252-.3612.4979-.7468.7347-1.1537.2307-.3977.4402-.8015.6315-1.2083-.1913-.4068-.4008-.81364-.6285-1.21135zm.9807.39468c.1639-.40683.3036-.81366.4189-1.20834-.3977-.09715-.8166-.17912-1.2508-.24288.1488.23377.2975.47362.4372.71954.1397.24288.2702.4888.3947.73168zm-3.0785-3.23943c-.28239.29145-.56474.61631-.84406.97152.27325-.01214.55256-.02125.83491-.02125.28535 0 .56775.00607.84405.02125-.2733-.35521-.5556-.68007-.8349-.97152zm-2.25884 1.78821c-.43111.06376-.84705.14269-1.24477.23985.11234.39164.25199.79543.40987 1.19922.12447-.24288.25502-.48576.39771-.72864.1427-.24288.28843-.47969.43719-.71043zm2.24362 6.31799c.28232-.2915.56472-.6163.84402-.9716-.2733.0122-.5526.0213-.8349.0213-.2854 0-.56775-.0061-.84403-.0213.27324.3553.55559.6801.83491.9716zm-2.24666-1.7883c-.14876-.2337-.29753-.4736-.43718-.7195-.13966-.2429-.27021-.4858-.39468-.7286-.16395.4068-.30361.8136-.41897 1.2083.39771.0941.81668.1761 1.25083.2398zm-2.74759-3.80105c-1.07475.45844-1.77 1.05955-1.77 1.53625 0 .4766.69525 1.0808 1.77 1.5362.2611.1123.54648.2125.84098.3066.17305-.595.40075-1.2144.6831-1.8489-.27931-.6315-.50398-1.2478-.674-1.83982-.30056.09412-.58595.19734-.85008.30967zm1.63338-4.33846c-.4129.23681-.59203 1.1385-.45237 2.29826.0334.28539.08804.58595.15484.89259.59506-.14573 1.24476-.25806 1.92787-.33092.40986-.56167.8349-1.07172 1.26298-1.51801-.98974-.91992-1.91876-1.4239-2.55025-1.4239-.13662.00304-.25199.03037-.34307.08198zm7.20139 2.31344c.1427-1.15976-.0334-2.06145-.4432-2.3013-.0911-.05465-.2095-.07894-.3492-.07894-.6284 0-1.5605.50095-2.5502 1.41479.425.44629.8501.95331 1.2539 1.51497.6861.07287 1.3358.1852 1.9309.33396.0698-.30663.1244-.60113.1578-.88348zm1.1689 2.02502c-.2611-.11233-.5465-.21252-.841-.30663-.173.59506-.4007 1.21438-.6831 1.84898.2793.6314.504 1.2478.674 1.8398.3006-.0941.586-.1974.8531-.3097 1.0748-.4584 1.77-1.0596 1.77-1.5362-.003-.4767-.6982-1.08084-1.773-1.53625z"/><path d="m9.99683 9.35484c.76627 0 1.38747.62119 1.38747 1.38746 0 .7663-.6212 1.3875-1.38747 1.3875s-1.38745-.6212-1.38745-1.3875c0-.76627.62118-1.38746 1.38745-1.38746z"/></g></svg>