<svg fill="none" height="13" viewBox="0 0 12 13" width="12" xmlns="http://www.w3.org/2000/svg"><path d="m5.99999 3.9877c-.58017 0-1.13657.23047-1.5468.64071-.41024.41023-.6407.96663-.6407 1.54679s.23046 1.13656.6407 1.5468c.41023.41023.96663.6407 1.5468.6407.58016 0 1.13656-.23047 1.54679-.6407.41024-.41024.6407-.96664.6407-1.5468s-.23046-1.13656-.6407-1.54679c-.41023-.41024-.96663-.64071-1.54679-.64071zm-1.3125 2.1875c0-.34809.13828-.68193.38442-.92808.24614-.24614.57998-.38442.92808-.38442.34809 0 .68193.13828.92807.38442.24614.24615.38443.57999.38443.92808 0 .3481-.13829.68194-.38443.92808s-.57998.38442-.92807.38442c-.3481 0-.68194-.13828-.92808-.38442s-.38442-.57998-.38442-.92808zm-.07 5.9623c.45281.108.917.1627 1.3825.1627.46506-.0007.92846-.0558 1.38074-.1641.12996-.0306.24725-.1007.33577-.2006.08852-.1.14392-.2249.15861-.3576l.10238-.9319c.00981-.1017.04369-.1996.09884-.2856s.12998-.1576.21831-.209c.08832-.0513.18761-.0809.28963-.0863.10203-.0053.20386.0137.29709.0555l.85531.3749c.12244.0539.25862.0683.38963.0413.131-.0271.2503-.0943.3414-.1922.632-.68096 1.1038-1.49457 1.3808-2.38133.0397-.12827.0385-.26572-.0034-.39327-.042-.12755-.1226-.23889-.2307-.31855l-.7564-.55781c-.0826-.06021-.1498-.13911-.1961-.23026-.0463-.09116-.0704-.19197-.0703-.2942.0002-.10223.0245-.20298.071-.29402.0465-.09103.1139-.16977.1967-.22977l.7525-.55606c.1087-.07946.1898-.19096.232-.31885.0421-.12789.0431-.26576.0029-.39428-.2765-.88692-.7485-1.70051-1.3812-2.38087-.0914-.09781-.211-.16485-.3421-.19188-.13121-.02703-.26753-.01273-.39023.04094l-.85137.3745c-.09332.04068-.1949.05883-.29652.05298-.10163-.00585-.20046-.03552-.2885-.08663-.08803-.05111-.16281-.12222-.21828-.20758-.05546-.08535-.09007-.18256-.10101-.28377l-.10325-.9275c-.01444-.134288-.07062-.260669-.16064-.36136-.09002-.10069-.20934-.170621-.34118-.199953-.44925-.100382-.90776-.1536076-1.36806-.1588124-.46303.0054797-.92426.0586984-1.37637.1588124-.13186.02883-.25129.098438-.34136.198953s-.14621.226835-.16046.361047l-.10368.928373c-.01133.10136-.04624.19866-.10192.28411-.05569.08544-.13061.15666-.21877.20795-.08816.05128-.1871.08121-.2889.08739-.10181.00618-.20364-.01157-.29735-.05182l-.85138-.37494c-.12284-.05218-.25871-.06547-.38934-.03809-.13062.02737-.24973.09411-.34128.19121-.632786.68115-1.105157 1.49524-1.382502 2.38263-.039474.12819-.038109.26548.003906.39285.042015.12738.1226.23854.230594.31809l.754692.5565c.08221.06049.14904.13947.1951.23055.04607.09108.07007.19172.07007.29379s-.024.20271-.07007.29379c-.04606.09109-.11289.17006-.1951.23055l-.754692.55782c-.108315.07967-.189077.19115-.231033.3189s-.043015.26541-.003029.39379c.277216.88796.749587 1.70265 1.382504 2.38438.06016.0647.13312.1162.21423.1512s.16861.0528.25695.0522c.08882 0 .17675-.0179.25857-.0533l.85531-.3759c.09329-.0403.19473-.0581.29618-.0521s.20006.0358.28793.0868c.08787.0511.16253.122.21799.2072s.09017.1821.10134.2831l.10281.9302c.01501.1319.07032.256.1584.3553.08807.0993.20462.1691.33379.1999zm2.40668-.8164c-.67503.1384-1.37115.1384-2.04619 0l-.08531-.7613c-.0417-.3724-.21928-.71632-.49875-.96597-.21877-.19271-.48759-.31961-.77542-.36606-.28782-.04645-.58291-.01055-.8512.10356l-.70263.30625c-.45325-.51902-.80205-1.12065-1.02725-1.77188l.623-.46025c.19248-.14182.34893-.32689.45676-.54028.10782-.21339.164-.44913.164-.68822 0-.23908-.05618-.47482-.164-.68821-.10783-.21339-.26428-.39846-.45676-.54029l-.62168-.45894c.22546-.65058.57424-1.25159 1.02725-1.77012l.7.30625c.19293.0852.40158.12901.6125.12862.37558-.00117.73764-.14035 1.01731-.39106.27966-.25071.45743-.59546.4995-.96869l.08487-.76431c.33863-.065623.6825-.100623 1.02682-.104998.34212.004375.68337.039375 1.01937.104558l.08138.76125c.04042.37363.2176.7191.49743.96994.21894.19384.48848.32144.77718.36792.28871.04648.58467.00992.85338-.10542l.7-.30625c.45367.51839.80277 1.11962 1.02817 1.77056l-.6226.45763c-.1935.14128-.351.32626-.45955.53989-.10855.21362-.16512.44986-.16512.68948 0 .23963.05657.47587.16512.68949.10855.21363.26605.39861.45955.53989l.6221.45894c-.2254.65003-.5737 1.25068-1.02592 1.76925l-.7-.30625c-.21901-.09748-.45799-.14174-.69739-.12919-.2394.01256-.47243.08159-.68005.20144s-.38393.28713-.51453.48816c-.1306.20101-.21178.43011-.2369.66851z" fill="#5e6a86"/></svg>