<svg fill="none" height="12" viewBox="0 0 13 12" width="13" xmlns="http://www.w3.org/2000/svg"><path d="m3.14709 9.02396c0 .3082.25157.55976.56108.55976h.64141v1.58578c0 .4017.32268.7296.71912.7296.39776 0 .71912-.3266.71912-.7296v-1.5871h1.11951v1.5858c0 .4017.32268.7296.71912.7296.39776 0 .71912-.3266.71912-.7296v-1.5858h.64141c.30952 0 .56108-.25156.56108-.55975v-5.20506h-6.40097zm4.70326-7.90373.59137-.856098c.03424-.050048.02634-.117219-.01976-.150146-.0461-.0316094-.11195-.0158045-.14619.034244l-.61376.89034c-.40434-.159366-.85478-.24761-1.32761-.24761-.47282 0-.92326.088244-1.3276.24761l-.61376-.889023c-.03424-.0500484-.10009-.0671703-.14619-.034244-.0461.03161-.054.097464-.01976.150146l.59137.856091c-.94039.43727-1.59893 1.26571-1.68322 2.23376h6.40096c-.08693-.96937-.74678-1.7978-1.68585-2.23507zm-2.86726 1.34999c-.07007 0-.13857-.02077-.19683-.0597-.05827-.03893-.10368-.09427-.13049-.15901-.02682-.06473-.03383-.13597-.02016-.2047.01367-.06872.04741-.13185.09696-.1814s.11268-.08329.1814-.09696c.06873-.01367.13996-.00666.2047.02016s.12007.07223.159.13049.05971.12676.05971.19683c-.00024.09389-.03765.18387-.10404.25026s-.15636.10379-.25025.10403zm2.74477 0c-.07007 0-.13857-.02077-.19683-.0597s-.10367-.09427-.13049-.15901c-.02681-.06473-.03383-.13597-.02016-.2047.01367-.06872.04741-.13185.09696-.1814s.11268-.08329.18141-.09696c.06872-.01367.13996-.00666.2047.02016.06473.02682.12007.07223.159.13049s.05971.12676.05971.19683c-.00025.09389-.03765.18387-.10404.25026s-.15637.10379-.25026.10403zm2.94234 1.32629c-.3978 0-.71912.32664-.71912.72966v2.85014c0 .40171.32272.72966.71912.72966.3978 0 .7191-.32664.7191-.72966v-2.85146c.0013-.40302-.32-.72834-.7191-.72834zm-8.67422 0c-.39776 0-.71912.32664-.71912.72966v2.85014c0 .40171.32268.72966.71912.72966.39775 0 .71912-.32664.71912-.72966v-2.85146c0-.40302-.32269-.72834-.71912-.72834z" fill="#5e6a86"/></svg>