<svg fill="none" height="12" viewBox="0 0 13 12" width="13" xmlns="http://www.w3.org/2000/svg"><path d="m10.0581 6.32303c-.0055-.93469.418-1.63914 1.2732-2.15856-.4783-.68526-1.2019-1.06215-2.15579-1.13479-.90317-.07126-1.89131.52628-2.25313.52628-.38237 0-1.25676-.50161-1.94476-.50161-1.41985.02193-2.92879 1.13205-2.92879 3.39066 0 .66744.12197 1.35681.36593 2.06673.32618.9347 1.50208 3.22486 2.72869 3.18786.6414-.0151 1.09504-.455 1.92969-.455.80997 0 1.22935.455 1.94476.455 1.2376-.0179 2.3011-2.09967 2.6108-3.0371-1.65966-.78256-1.5706-2.2915-1.5706-2.33947zm-1.44039-4.18007c.69485-.82505.63181-1.576093.61125-1.846085-.61399.035633-1.32392.418007-1.72822.888095-.44542.50435-.70719 1.12793-.651 1.83101.66333.05071 1.2691-.29055 1.76797-.87302z" fill="#e8effd"/></svg>